# xmcd CD database file
#
# Track frame offsets:
#	150
#	17367
#	38750
#	54562
#	67952
#	83315
#	94447
#	105780
#	120622
#	140527
#	157995
#	172287
#
# Disc length: 2492 seconds
#
# Revision: 0
# Processed by: cddbd v1.4PL0 Copyright (c) Steve Scherf et al.
# Submitted via: CDex 1.51
#
DISCID=8c09ba0c
DTITLE=Bud Powell - Bud Powell (Jazz Special Sellection-15)
DYEAR=2001
DGENRE=Jazz
TTITLE0=Tea for Two
TTITLE1=Lady Bird
TTITLE2=Star Eyes
TTITLE3=My Funny Valentine
TTITLE4=Body and Soul
TTITLE5=Tempus Fugue-it
TTITLE6=Parisian Thoroughfare
TTITLE7=Tenderly
TTITLE8=Willow Grove
TTITLE9=Just One of Those Things
TTITLE10=April in Paris
TTITLE11=So Sorry Please
EXTD=YEAR: 2001
EXTT0=
EXTT1=
EXTT2=
EXTT3=
EXTT4=
EXTT5=
EXTT6=
EXTT7=
EXTT8=
EXTT9=
EXTT10=
EXTT11=
PLAYORDER=
